<?xml version="1.0" encoding="utf-8"?>
<!-- Generator: Adobe Illustrator 23.1.1, SVG Export Plug-In . SVG Version: 6.00 Build 0)  -->
<svg version="1.1" id="Layer_1" xmlns="http://www.w3.org/2000/svg" xmlns:xlink="http://www.w3.org/1999/xlink" x="0px" y="0px"
	 viewBox="0 0 472.171 193.503" style="enable-background:new 0 0 472.171 193.503;" xml:space="preserve">
<style type="text/css">
	.st0{fill:#1DB1BA;}
	.st1{fill:#FFFFFF;}
</style>
<g>
	<g>
		<path class="st0" d="M102.849,2.751c0.76,0,1.376-0.616,1.376-1.376S103.609,0,102.849,0c-0.759,0-1.374,0.616-1.374,1.375
			S102.09,2.751,102.849,2.751z"/>
		<path class="st0" d="M115.564,2.574c0.662,0,1.198-0.537,1.198-1.199c0-0.662-0.536-1.199-1.198-1.199s-1.199,0.537-1.199,1.199
			C114.365,2.037,114.902,2.574,115.564,2.574z"/>
		<circle class="st0" cx="102.849" cy="14.09" r="3.032"/>
		<path class="st0" d="M115.564,16.804c1.498,0,2.715-1.215,2.715-2.715c0-1.5-1.217-2.715-2.715-2.715
			c-1.499,0-2.715,1.215-2.715,2.715C112.85,15.589,114.065,16.804,115.564,16.804z"/>
		<path class="st0" d="M128.278,16.276c1.207,0,2.187-0.978,2.187-2.186s-0.979-2.186-2.187-2.186c-1.207,0-2.185,0.978-2.185,2.186
			S127.071,16.276,128.278,16.276z"/>
		<path class="st0" d="M140.992,15.641c0.858,0,1.552-0.694,1.552-1.552c0-0.857-0.694-1.552-1.552-1.552
			c-0.857,0-1.551,0.695-1.551,1.552C139.442,14.947,140.135,15.641,140.992,15.641z"/>
		<path class="st0" d="M102.849,31.74c2.726,0,4.937-2.21,4.937-4.936c0-2.726-2.211-4.936-4.937-4.936
			c-2.727,0-4.935,2.21-4.935,4.936C97.914,29.531,100.123,31.74,102.849,31.74z"/>
		<path class="st0" d="M115.564,31.316c2.493,0,4.513-2.02,4.513-4.512s-2.02-4.513-4.513-4.513s-4.512,2.02-4.512,4.513
			S113.072,31.316,115.564,31.316z"/>
		<path class="st0" d="M128.278,30.612c2.103,0,3.808-1.705,3.808-3.808c0-2.103-1.705-3.809-3.808-3.809
			c-2.102,0-3.808,1.706-3.808,3.809C124.47,28.907,126.177,30.612,128.278,30.612z"/>
		<path class="st0" d="M140.992,29.625c1.559,0,2.821-1.263,2.821-2.821c0-1.558-1.263-2.821-2.821-2.821
			c-1.557,0-2.82,1.263-2.82,2.821C138.172,28.362,139.435,29.625,140.992,29.625z"/>
		<path class="st0" d="M153.708,28.672c1.031,0,1.869-0.836,1.869-1.868c0-1.032-0.837-1.869-1.869-1.869
			c-1.032,0-1.868,0.837-1.868,1.869C151.839,27.836,152.675,28.672,153.708,28.672z"/>
		<path class="st0" d="M140.992,43.995c2.474,0,4.478-2.004,4.478-4.477c0-2.473-2.004-4.478-4.478-4.478
			c-2.473,0-4.478,2.005-4.478,4.478C136.515,41.992,138.52,43.995,140.992,43.995z"/>
		<circle class="st0" cx="153.708" cy="39.518" r="3.173"/>
		<path class="st0" d="M166.423,41.352c1.012,0,1.833-0.82,1.833-1.833c0-1.012-0.821-1.834-1.833-1.834
			c-1.012,0-1.834,0.822-1.834,1.834C164.589,40.531,165.41,41.352,166.423,41.352z"/>
		<path class="st0" d="M153.708,56.64c2.433,0,4.406-1.973,4.406-4.407c0-2.433-1.973-4.407-4.406-4.407
			c-2.434,0-4.407,1.974-4.407,4.407C149.301,54.667,151.274,56.64,153.708,56.64z"/>
		<path class="st0" d="M166.423,54.983c1.518,0,2.749-1.231,2.749-2.75c0-1.519-1.232-2.75-2.749-2.75
			c-1.52,0-2.752,1.232-2.752,2.75C163.671,53.752,164.903,54.983,166.423,54.983z"/>
		<path class="st0" d="M179.136,53.678c0.799,0,1.445-0.647,1.445-1.446c0-0.798-0.647-1.445-1.445-1.445
			c-0.798,0-1.445,0.647-1.445,1.445C177.691,53.031,178.338,53.678,179.136,53.678z"/>
		<path class="st0" d="M166.423,68.614c2.024,0,3.667-1.642,3.667-3.667c0-2.025-1.643-3.668-3.667-3.668
			c-2.025,0-3.668,1.643-3.668,3.668C162.754,66.972,164.397,68.614,166.423,68.614z"/>
		<path class="st0" d="M179.136,66.993c1.13,0,2.045-0.916,2.045-2.045c0-1.13-0.915-2.045-2.045-2.045
			c-1.129,0-2.044,0.916-2.044,2.045C177.092,66.077,178.007,66.993,179.136,66.993z"/>
		<path class="st0" d="M166.423,81.964c2.375,0,4.301-1.926,4.301-4.302c0-2.376-1.927-4.301-4.301-4.301
			c-2.376,0-4.302,1.926-4.302,4.301C162.12,80.038,164.046,81.964,166.423,81.964z"/>
		<path class="st0" d="M179.136,80.165c1.383,0,2.503-1.121,2.503-2.503c0-1.382-1.12-2.503-2.503-2.503
			c-1.383,0-2.502,1.121-2.502,2.503C176.634,79.044,177.754,80.165,179.136,80.165z"/>
		<circle class="st0" cx="191.851" cy="77.662" r="1.058"/>
		<path class="st0" d="M166.423,85.758c-2.551,0-4.62,2.067-4.62,4.619c0,2.551,2.069,4.619,4.62,4.619
			c2.549,0,4.618-2.068,4.618-4.619C171.04,87.825,168.972,85.758,166.423,85.758z"/>
		<path class="st0" d="M179.136,87.626c-1.519,0-2.75,1.232-2.75,2.75c0,1.519,1.231,2.75,2.75,2.75s2.751-1.231,2.751-2.75
			C181.887,88.858,180.655,87.626,179.136,87.626z"/>
		<path class="st0" d="M191.851,91.575c0.662,0,1.198-0.537,1.198-1.199c0-0.662-0.536-1.2-1.198-1.2
			c-0.662,0-1.198,0.537-1.198,1.2C190.653,91.038,191.189,91.575,191.851,91.575z"/>
		<path class="st0" d="M90.2,2.751c0.759,0,1.374-0.616,1.374-1.376S90.958,0,90.2,0c-0.76,0-1.376,0.616-1.376,1.375
			S89.44,2.751,90.2,2.751z"/>
		<path class="st0" d="M77.485,2.574c0.662,0,1.199-0.537,1.199-1.199c0-0.662-0.536-1.199-1.199-1.199
			c-0.663,0-1.198,0.537-1.198,1.199C76.287,2.037,76.822,2.574,77.485,2.574z"/>
		<circle class="st0" cx="90.2" cy="14.09" r="3.032"/>
		<path class="st0" d="M77.485,16.804c1.499,0,2.715-1.215,2.715-2.715c0-1.5-1.215-2.715-2.715-2.715
			c-1.499,0-2.715,1.215-2.715,2.715C74.77,15.589,75.986,16.804,77.485,16.804z"/>
		<path class="st0" d="M64.771,16.276c1.207,0,2.185-0.978,2.185-2.186s-0.979-2.186-2.185-2.186c-1.207,0-2.187,0.978-2.187,2.186
			S63.563,16.276,64.771,16.276z"/>
		<circle class="st0" cx="52.056" cy="14.09" r="1.552"/>
		<path class="st0" d="M90.2,31.74c2.726,0,4.935-2.21,4.935-4.936c0-2.726-2.209-4.936-4.935-4.936
			c-2.727,0-4.937,2.21-4.937,4.936C85.263,29.531,87.473,31.74,90.2,31.74z"/>
		<path class="st0" d="M77.485,31.316c2.493,0,4.512-2.02,4.512-4.512s-2.02-4.513-4.512-4.513c-2.493,0-4.513,2.02-4.513,4.513
			S74.992,31.316,77.485,31.316z"/>
		<path class="st0" d="M64.771,30.612c2.102,0,3.808-1.705,3.808-3.808c0-2.103-1.706-3.809-3.808-3.809
			c-2.103,0-3.808,1.706-3.808,3.809C60.963,28.907,62.668,30.612,64.771,30.612z"/>
		<path class="st0" d="M52.056,29.625c1.558,0,2.821-1.263,2.821-2.821c0-1.558-1.263-2.821-2.821-2.821
			c-1.558,0-2.82,1.263-2.82,2.821C49.236,28.362,50.498,29.625,52.056,29.625z"/>
		<path class="st0" d="M39.342,28.672c1.032,0,1.868-0.836,1.868-1.868c0-1.032-0.836-1.869-1.868-1.869s-1.869,0.837-1.869,1.869
			C37.473,27.836,38.31,28.672,39.342,28.672z"/>
		<path class="st0" d="M52.056,43.995c2.473,0,4.478-2.004,4.478-4.477c0-2.473-2.005-4.478-4.478-4.478
			c-2.473,0-4.478,2.005-4.478,4.478C47.578,41.992,49.583,43.995,52.056,43.995z"/>
		<path class="st0" d="M39.342,42.692c1.753,0,3.174-1.42,3.174-3.173c0-1.753-1.421-3.173-3.174-3.173s-3.174,1.42-3.174,3.173
			C36.168,41.271,37.589,42.692,39.342,42.692z"/>
		<path class="st0" d="M26.627,41.352c1.012,0,1.834-0.82,1.834-1.833c0-1.012-0.822-1.834-1.834-1.834
			c-1.012,0-1.833,0.822-1.833,1.834C24.794,40.531,25.615,41.352,26.627,41.352z"/>
		<path class="st0" d="M39.342,56.64c2.433,0,4.407-1.973,4.407-4.407c0-2.433-1.973-4.407-4.407-4.407
			c-2.434,0-4.406,1.974-4.406,4.407C34.935,54.667,36.908,56.64,39.342,56.64z"/>
		<path class="st0" d="M26.627,54.983c1.519,0,2.751-1.231,2.751-2.75c0-1.519-1.232-2.75-2.751-2.75
			c-1.518,0-2.749,1.232-2.749,2.75C23.877,53.752,25.109,54.983,26.627,54.983z"/>
		<path class="st0" d="M13.913,53.678c0.798,0,1.445-0.647,1.445-1.446c0-0.798-0.648-1.445-1.445-1.445
			c-0.799,0-1.445,0.647-1.445,1.445C12.468,53.031,13.114,53.678,13.913,53.678z"/>
		<path class="st0" d="M26.627,68.614c2.025,0,3.668-1.642,3.668-3.667c0-2.025-1.642-3.668-3.668-3.668
			c-2.024,0-3.667,1.643-3.667,3.668C22.96,66.972,24.602,68.614,26.627,68.614z"/>
		<path class="st0" d="M13.913,66.993c1.129,0,2.044-0.916,2.044-2.045c0-1.13-0.915-2.045-2.044-2.045
			c-1.13,0-2.045,0.916-2.045,2.045C11.868,66.077,12.783,66.993,13.913,66.993z"/>
		<path class="st0" d="M26.627,81.964c2.376,0,4.302-1.926,4.302-4.302c0-2.376-1.926-4.301-4.302-4.301
			c-2.375,0-4.301,1.926-4.301,4.301C22.325,80.038,24.252,81.964,26.627,81.964z"/>
		<path class="st0" d="M13.913,80.165c1.382,0,2.502-1.121,2.502-2.503c0-1.382-1.12-2.503-2.502-2.503
			c-1.383,0-2.503,1.121-2.503,2.503C11.41,79.044,12.53,80.165,13.913,80.165z"/>
		<path class="st0" d="M1.198,78.72c0.584,0,1.057-0.474,1.057-1.058c0-0.584-0.473-1.058-1.057-1.058
			c-0.584,0-1.057,0.474-1.057,1.058C0.141,78.246,0.614,78.72,1.198,78.72z"/>
		<path class="st0" d="M26.627,85.758c-2.55,0-4.618,2.067-4.618,4.619c0,2.551,2.068,4.619,4.618,4.619
			c2.551,0,4.62-2.068,4.62-4.619C31.247,87.825,29.178,85.758,26.627,85.758z"/>
		<path class="st0" d="M13.913,87.626c-1.519,0-2.751,1.232-2.751,2.75c0,1.519,1.232,2.75,2.751,2.75c1.518,0,2.75-1.231,2.75-2.75
			C16.663,88.858,15.431,87.626,13.913,87.626z"/>
		<path class="st0" d="M1.198,89.177c-0.662,0-1.198,0.537-1.198,1.2c0,0.662,0.536,1.199,1.198,1.199
			c0.662,0,1.198-0.537,1.198-1.199C2.396,89.714,1.86,89.177,1.198,89.177z"/>
		<path class="st0" d="M102.849,190.752c-0.759,0-1.374,0.616-1.374,1.376s0.615,1.375,1.374,1.375c0.76,0,1.376-0.616,1.376-1.375
			S103.609,190.752,102.849,190.752z"/>
		<path class="st0" d="M115.564,190.929c-0.662,0-1.199,0.537-1.199,1.199c0,0.662,0.537,1.199,1.199,1.199s1.198-0.537,1.198-1.199
			C116.763,191.466,116.227,190.929,115.564,190.929z"/>
		<circle class="st0" cx="102.849" cy="179.414" r="3.032"/>
		<path class="st0" d="M115.564,176.699c-1.499,0-2.715,1.215-2.715,2.715c0,1.5,1.215,2.715,2.715,2.715
			c1.498,0,2.715-1.215,2.715-2.715C118.279,177.914,117.063,176.699,115.564,176.699z"/>
		<path class="st0" d="M128.278,177.228c-1.207,0-2.185,0.978-2.185,2.186s0.978,2.186,2.185,2.186c1.207,0,2.187-0.978,2.187-2.186
			S129.486,177.228,128.278,177.228z"/>
		<path class="st0" d="M140.992,177.862c-0.857,0-1.551,0.694-1.551,1.552c0,0.857,0.694,1.552,1.551,1.552
			c0.858,0,1.552-0.695,1.552-1.552C142.544,178.556,141.85,177.862,140.992,177.862z"/>
		<path class="st0" d="M102.849,161.763c-2.727,0-4.935,2.21-4.935,4.936c0,2.726,2.209,4.936,4.935,4.936
			c2.726,0,4.937-2.21,4.937-4.936C107.786,163.973,105.576,161.763,102.849,161.763z"/>
		<path class="st0" d="M115.564,162.187c-2.493,0-4.512,2.02-4.512,4.512s2.02,4.513,4.512,4.513s4.513-2.02,4.513-4.513
			S118.057,162.187,115.564,162.187z"/>
		<path class="st0" d="M128.278,162.891c-2.102,0-3.808,1.705-3.808,3.808c0,2.103,1.706,3.809,3.808,3.809
			c2.103,0,3.808-1.706,3.808-3.809C132.086,164.596,130.382,162.891,128.278,162.891z"/>
		<path class="st0" d="M140.992,163.879c-1.557,0-2.82,1.263-2.82,2.821c0,1.558,1.263,2.821,2.82,2.821
			c1.559,0,2.821-1.263,2.821-2.821C143.813,165.142,142.551,163.879,140.992,163.879z"/>
		<path class="st0" d="M153.708,164.831c-1.032,0-1.868,0.836-1.868,1.868c0,1.032,0.836,1.869,1.868,1.869
			c1.031,0,1.869-0.837,1.869-1.869C155.577,165.667,154.739,164.831,153.708,164.831z"/>
		<path class="st0" d="M140.992,149.508c-2.473,0-4.478,2.004-4.478,4.477c0,2.473,2.005,4.478,4.478,4.478
			c2.474,0,4.478-2.005,4.478-4.478C145.471,151.511,143.466,149.508,140.992,149.508z"/>
		<circle class="st0" cx="153.708" cy="153.985" r="3.173"/>
		<path class="st0" d="M166.423,152.152c-1.012,0-1.834,0.82-1.834,1.833c0,1.012,0.822,1.834,1.834,1.834
			c1.012,0,1.833-0.822,1.833-1.834C168.255,152.972,167.434,152.152,166.423,152.152z"/>
		<path class="st0" d="M153.708,136.863c-2.434,0-4.407,1.973-4.407,4.407c0,2.433,1.973,4.407,4.407,4.407
			c2.433,0,4.406-1.974,4.406-4.407C158.114,138.836,156.141,136.863,153.708,136.863z"/>
		<path class="st0" d="M166.423,138.52c-1.52,0-2.752,1.231-2.752,2.75c0,1.519,1.232,2.75,2.752,2.75
			c1.518,0,2.749-1.232,2.749-2.75C169.172,139.752,167.94,138.52,166.423,138.52z"/>
		<path class="st0" d="M179.136,139.825c-0.798,0-1.445,0.647-1.445,1.446c0,0.798,0.647,1.445,1.445,1.445
			c0.799,0,1.445-0.647,1.445-1.445C180.582,140.472,179.935,139.825,179.136,139.825z"/>
		<path class="st0" d="M166.423,124.889c-2.025,0-3.668,1.642-3.668,3.667c0,2.025,1.643,3.668,3.668,3.668
			c2.024,0,3.667-1.643,3.667-3.668C170.089,126.531,168.447,124.889,166.423,124.889z"/>
		<path class="st0" d="M179.136,126.51c-1.129,0-2.044,0.916-2.044,2.045c0,1.13,0.915,2.045,2.044,2.045
			c1.13,0,2.045-0.916,2.045-2.045C181.181,127.427,180.266,126.51,179.136,126.51z"/>
		<path class="st0" d="M166.423,111.54c-2.376,0-4.302,1.926-4.302,4.302c0,2.376,1.926,4.301,4.302,4.301
			c2.375,0,4.301-1.926,4.301-4.301C170.724,113.465,168.797,111.54,166.423,111.54z"/>
		<path class="st0" d="M179.136,113.338c-1.383,0-2.502,1.121-2.502,2.503c0,1.382,1.12,2.503,2.502,2.503
			c1.383,0,2.503-1.121,2.503-2.503C181.639,114.459,180.519,113.338,179.136,113.338z"/>
		<circle class="st0" cx="191.851" cy="115.841" r="1.058"/>
		<path class="st0" d="M166.423,98.508c-2.551,0-4.62,2.068-4.62,4.619c0,2.552,2.069,4.619,4.62,4.619
			c2.549,0,4.618-2.067,4.618-4.619C171.04,100.576,168.972,98.508,166.423,98.508z"/>
		<path class="st0" d="M179.136,100.377c-1.519,0-2.75,1.231-2.75,2.75c0,1.519,1.231,2.75,2.75,2.75s2.751-1.232,2.751-2.75
			C181.887,101.608,180.655,100.377,179.136,100.377z"/>
		<path class="st0" d="M191.851,101.928c-0.662,0-1.198,0.537-1.198,1.199c0,0.662,0.536,1.2,1.198,1.2
			c0.662,0,1.198-0.537,1.198-1.2C193.049,102.465,192.513,101.928,191.851,101.928z"/>
		<path class="st0" d="M90.2,190.752c-0.76,0-1.376,0.616-1.376,1.376s0.616,1.375,1.376,1.375c0.759,0,1.374-0.616,1.374-1.375
			S90.958,190.752,90.2,190.752z"/>
		<path class="st0" d="M77.485,190.929c-0.663,0-1.198,0.537-1.198,1.199c0,0.662,0.535,1.199,1.198,1.199
			c0.662,0,1.199-0.537,1.199-1.199C78.684,191.466,78.147,190.929,77.485,190.929z"/>
		<circle class="st0" cx="90.2" cy="179.414" r="3.032"/>
		<path class="st0" d="M77.485,176.699c-1.499,0-2.715,1.215-2.715,2.715c0,1.5,1.216,2.715,2.715,2.715
			c1.499,0,2.715-1.215,2.715-2.715C80.199,177.914,78.984,176.699,77.485,176.699z"/>
		<path class="st0" d="M64.771,177.228c-1.207,0-2.187,0.978-2.187,2.186s0.979,2.186,2.187,2.186c1.207,0,2.185-0.978,2.185-2.186
			S65.977,177.228,64.771,177.228z"/>
		<circle class="st0" cx="52.056" cy="179.414" r="1.552"/>
		<path class="st0" d="M90.2,161.763c-2.727,0-4.937,2.21-4.937,4.936c0,2.726,2.211,4.936,4.937,4.936
			c2.726,0,4.935-2.21,4.935-4.936C95.135,163.973,92.926,161.763,90.2,161.763z"/>
		<path class="st0" d="M77.485,162.187c-2.493,0-4.513,2.02-4.513,4.512s2.02,4.513,4.513,4.513c2.493,0,4.512-2.02,4.512-4.513
			S79.978,162.187,77.485,162.187z"/>
		<path class="st0" d="M64.771,162.891c-2.103,0-3.808,1.705-3.808,3.808c0,2.103,1.705,3.809,3.808,3.809
			c2.102,0,3.808-1.706,3.808-3.809C68.579,164.596,66.873,162.891,64.771,162.891z"/>
		<path class="st0" d="M52.056,163.879c-1.558,0-2.82,1.263-2.82,2.821c0,1.558,1.262,2.821,2.82,2.821
			c1.558,0,2.821-1.263,2.821-2.821C54.877,165.142,53.614,163.879,52.056,163.879z"/>
		<path class="st0" d="M39.342,164.831c-1.032,0-1.869,0.836-1.869,1.868c0,1.032,0.837,1.869,1.869,1.869s1.868-0.837,1.868-1.869
			C41.21,165.667,40.373,164.831,39.342,164.831z"/>
		<path class="st0" d="M52.056,149.508c-2.473,0-4.478,2.004-4.478,4.477c0,2.473,2.005,4.478,4.478,4.478
			c2.473,0,4.478-2.005,4.478-4.478C56.534,151.511,54.529,149.508,52.056,149.508z"/>
		<path class="st0" d="M39.342,150.812c-1.753,0-3.174,1.42-3.174,3.173c0,1.753,1.421,3.173,3.174,3.173s3.174-1.42,3.174-3.173
			C42.515,152.232,41.094,150.812,39.342,150.812z"/>
		<path class="st0" d="M26.627,152.152c-1.012,0-1.833,0.82-1.833,1.833c0,1.012,0.821,1.834,1.833,1.834
			c1.012,0,1.834-0.822,1.834-1.834C28.461,152.972,27.639,152.152,26.627,152.152z"/>
		<path class="st0" d="M39.342,136.863c-2.434,0-4.406,1.973-4.406,4.407c0,2.433,1.973,4.407,4.406,4.407
			c2.433,0,4.407-1.974,4.407-4.407C43.748,138.836,41.775,136.863,39.342,136.863z"/>
		<path class="st0" d="M26.627,138.52c-1.518,0-2.749,1.231-2.749,2.75c0,1.519,1.232,2.75,2.749,2.75
			c1.519,0,2.751-1.232,2.751-2.75C29.378,139.752,28.146,138.52,26.627,138.52z"/>
		<path class="st0" d="M13.913,139.825c-0.799,0-1.445,0.647-1.445,1.446c0,0.798,0.647,1.445,1.445,1.445
			c0.798,0,1.445-0.647,1.445-1.445C15.359,140.472,14.711,139.825,13.913,139.825z"/>
		<path class="st0" d="M26.627,124.889c-2.024,0-3.667,1.642-3.667,3.667c0,2.025,1.642,3.668,3.667,3.668
			c2.025,0,3.668-1.643,3.668-3.668C30.294,126.531,28.652,124.889,26.627,124.889z"/>
		<path class="st0" d="M13.913,126.51c-1.13,0-2.045,0.916-2.045,2.045c0,1.13,0.915,2.045,2.045,2.045
			c1.129,0,2.044-0.916,2.044-2.045C15.957,127.427,15.042,126.51,13.913,126.51z"/>
		<path class="st0" d="M26.627,111.54c-2.375,0-4.301,1.926-4.301,4.302c0,2.376,1.926,4.301,4.301,4.301
			c2.376,0,4.302-1.926,4.302-4.301C30.929,113.465,29.003,111.54,26.627,111.54z"/>
		<path class="st0" d="M13.913,113.338c-1.383,0-2.503,1.121-2.503,2.503c0,1.382,1.12,2.503,2.503,2.503
			c1.382,0,2.502-1.121,2.502-2.503C16.416,114.459,15.295,113.338,13.913,113.338z"/>
		<path class="st0" d="M1.198,114.783c-0.584,0-1.057,0.474-1.057,1.058c0,0.584,0.473,1.058,1.057,1.058
			c0.584,0,1.057-0.474,1.057-1.058C2.255,115.257,1.782,114.783,1.198,114.783z"/>
		<path class="st0" d="M26.627,98.508c-2.55,0-4.618,2.068-4.618,4.619c0,2.552,2.068,4.619,4.618,4.619
			c2.551,0,4.62-2.067,4.62-4.619C31.247,100.576,29.178,98.508,26.627,98.508z"/>
		<path class="st0" d="M13.913,100.377c-1.519,0-2.751,1.231-2.751,2.75c0,1.519,1.232,2.75,2.751,2.75
			c1.518,0,2.75-1.232,2.75-2.75C16.663,101.608,15.431,100.377,13.913,100.377z"/>
		<path class="st0" d="M1.198,101.928c-0.662,0-1.198,0.537-1.198,1.199c0,0.662,0.536,1.2,1.198,1.2c0.662,0,1.198-0.537,1.198-1.2
			C2.396,102.465,1.86,101.928,1.198,101.928z"/>
	</g>
	<path class="st0" d="M160.647,90.376c0-3.063-2.004-5.656-4.772-6.544c2.57-0.876,4.42-3.305,4.42-6.17
		c0-3.602-2.92-6.523-6.524-6.523c-2.413,0-4.516,1.315-5.643,3.263c-0.662-1.432-1.741-2.624-3.086-3.427
		c1.571-1.042,2.712-2.679,3.098-4.592c0.64,2.517,2.915,4.382,5.63,4.382c3.213,0,5.818-2.606,5.818-5.818
		c0-3.212-2.605-5.818-5.818-5.818c-2.715,0-4.99,1.865-5.63,4.381c-0.536-2.657-2.529-4.78-5.109-5.512
		c2.398-0.822,4.124-3.09,4.124-5.767c0-3.369-2.73-6.099-6.099-6.099c-2.677,0-4.946,1.726-5.768,4.125
		c-0.73-2.579-2.851-4.573-5.507-5.109c2.515-0.642,4.378-2.916,4.378-5.631c0-3.213-2.604-5.818-5.818-5.818
		c-3.212,0-5.817,2.605-5.817,5.818c0,2.715,1.862,4.989,4.377,5.631c-1.911,0.387-3.547,1.528-4.588,3.099
		c-0.803-1.345-1.996-2.424-3.427-3.086c1.949-1.128,3.263-3.23,3.263-5.644c0-3.602-2.92-6.523-6.523-6.523
		c-2.866,0-5.295,1.851-6.17,4.42c-0.889-2.768-3.481-4.772-6.545-4.772c-2.891,0-5.36,1.785-6.376,4.311l-0.013-0.027l-0.013,0.027
		c-1.016-2.526-3.486-4.311-6.376-4.311c-3.064,0-5.655,2.004-6.545,4.772c-0.874-2.569-3.304-4.42-6.169-4.42
		c-3.603,0-6.523,2.921-6.523,6.523c0,2.413,1.315,4.516,3.264,5.644c-1.431,0.662-2.624,1.741-3.427,3.086
		c-1.04-1.571-2.676-2.712-4.588-3.099c2.515-0.642,4.377-2.916,4.377-5.631c0-3.213-2.604-5.818-5.817-5.818
		c-3.213,0-5.817,2.605-5.817,5.818c0,2.715,1.863,4.989,4.377,5.631c-2.655,0.536-4.776,2.53-5.507,5.109
		c-0.821-2.399-3.091-4.125-5.767-4.125c-3.369,0-6.1,2.73-6.1,6.099c0,2.677,1.726,4.946,4.125,5.767
		c-2.58,0.732-4.574,2.855-5.109,5.512c-0.639-2.517-2.915-4.381-5.63-4.381c-3.213,0-5.818,2.605-5.818,5.818
		c0,3.212,2.605,5.818,5.818,5.818c2.715,0,4.991-1.866,5.63-4.382c0.386,1.913,1.527,3.55,3.099,4.592
		c-1.345,0.803-2.424,1.995-3.086,3.427c-1.127-1.948-3.23-3.263-5.644-3.263c-3.604,0-6.524,2.921-6.524,6.523
		c0,2.865,1.851,5.294,4.42,6.17c-2.768,0.888-4.772,3.481-4.772,6.544c0,2.89,1.784,5.359,4.31,6.375
		c-2.526,1.017-4.31,3.486-4.31,6.375c0,3.063,2.004,5.656,4.772,6.544c-2.569,0.876-4.42,3.305-4.42,6.17
		c0,3.602,2.92,6.523,6.524,6.523c2.413,0,4.516-1.315,5.644-3.263c0.662,1.432,1.741,2.624,3.086,3.427
		c-1.571,1.042-2.713,2.679-3.099,4.592c-0.639-2.517-2.915-4.382-5.63-4.382c-3.213,0-5.818,2.606-5.818,5.818
		c0,3.212,2.605,5.818,5.818,5.818c2.715,0,4.991-1.865,5.63-4.381c0.536,2.657,2.529,4.78,5.109,5.512
		c-2.399,0.822-4.125,3.09-4.125,5.767c0,3.369,2.73,6.099,6.1,6.099c2.677,0,4.946-1.726,5.767-4.125
		c0.731,2.579,2.852,4.573,5.507,5.109c-2.514,0.642-4.377,2.916-4.377,5.631c0,3.213,2.604,5.818,5.817,5.818
		c3.213,0,5.817-2.605,5.817-5.818c0-2.715-1.862-4.989-4.377-5.631c1.911-0.387,3.547-1.528,4.588-3.099
		c0.804,1.345,1.996,2.424,3.427,3.086c-1.949,1.128-3.264,3.23-3.264,5.644c0,3.602,2.921,6.523,6.523,6.523
		c2.866,0,5.295-1.851,6.169-4.42c0.89,2.768,3.481,4.772,6.545,4.772c2.891,0,5.36-1.785,6.376-4.311l0.013,0.027l0.013-0.027
		c1.016,2.526,3.485,4.311,6.376,4.311c3.064,0,5.656-2.004,6.545-4.772c0.874,2.569,3.304,4.42,6.17,4.42
		c3.603,0,6.523-2.921,6.523-6.523c0-2.413-1.314-4.516-3.263-5.644c1.431-0.662,2.624-1.741,3.427-3.086
		c1.041,1.571,2.677,2.712,4.588,3.099c-2.514,0.642-4.377,2.916-4.377,5.631c0,3.213,2.604,5.818,5.817,5.818
		c3.214,0,5.818-2.605,5.818-5.818c0-2.715-1.863-4.989-4.378-5.631c2.656-0.536,4.776-2.53,5.507-5.109
		c0.821,2.399,3.091,4.125,5.768,4.125c3.369,0,6.099-2.73,6.099-6.099c0-2.677-1.726-4.946-4.124-5.767
		c2.58-0.732,4.573-2.855,5.109-5.512c0.64,2.517,2.915,4.381,5.63,4.381c3.213,0,5.818-2.605,5.818-5.818
		c0-3.212-2.605-5.818-5.818-5.818c-2.715,0-4.99,1.866-5.63,4.382c-0.386-1.913-1.527-3.55-3.098-4.592
		c1.345-0.803,2.424-1.995,3.086-3.427c1.127,1.948,3.23,3.263,5.643,3.263c3.604,0,6.524-2.921,6.524-6.523
		c0-2.865-1.851-5.294-4.42-6.17c2.769-0.888,4.772-3.481,4.772-6.544c0-2.89-1.784-5.358-4.31-6.375
		C158.863,95.735,160.647,93.266,160.647,90.376z M44.922,112.583c-0.784-1.355-2.038-2.399-3.541-2.911
		c1.455-0.467,2.696-1.405,3.549-2.635c0.575,1.038,1.376,1.931,2.331,2.624C46.262,110.426,45.456,111.427,44.922,112.583z
		 M41.843,96.752c1.255-0.505,2.326-1.369,3.087-2.466c0.533,0.961,1.259,1.796,2.121,2.466c-0.862,0.67-1.588,1.505-2.121,2.466
		C44.169,98.121,43.098,97.257,41.843,96.752z M44.93,86.467c-0.853-1.23-2.094-2.168-3.549-2.635
		c1.503-0.513,2.757-1.557,3.541-2.911c0.534,1.156,1.34,2.156,2.339,2.922C46.305,84.536,45.505,85.429,44.93,86.467z
		 M57.76,139.297c-0.61-1.779-2.015-3.184-3.793-3.793c1.555-0.441,2.891-1.388,3.829-2.652c0.66,1.06,1.555,1.955,2.616,2.615
		C59.146,136.405,58.2,137.741,57.76,139.297z M57.796,60.652c-0.938-1.265-2.275-2.212-3.829-2.652
		c1.779-0.61,3.184-2.014,3.793-3.793c0.44,1.555,1.387,2.892,2.652,3.831C59.351,58.697,58.456,59.592,57.796,60.652z
		 M83.59,151.882c-0.511-1.504-1.556-2.758-2.91-3.541c1.155-0.534,2.155-1.34,2.922-2.34c0.693,0.956,1.586,1.757,2.624,2.332
		C84.996,149.185,84.057,150.427,83.59,151.882z M83.602,47.503c-0.767-1-1.767-1.806-2.922-2.34
		c1.353-0.784,2.398-2.037,2.91-3.541c0.467,1.455,1.406,2.697,2.636,3.55C85.188,45.746,84.296,46.546,83.602,47.503z
		 M96.538,151.422l-0.013-0.028l-0.013,0.028c-0.506-1.257-1.368-2.328-2.465-3.089c0.962-0.534,1.799-1.26,2.469-2.125l0.01,0.011
		l0.01-0.011c0.67,0.865,1.508,1.592,2.469,2.125C97.906,149.093,97.043,150.165,96.538,151.422z M96.534,47.296l-0.01-0.011
		l-0.01,0.011c-0.67-0.865-1.508-1.592-2.469-2.125c1.097-0.761,1.96-1.833,2.465-3.089l0.013,0.028l0.013-0.028
		c0.505,1.257,1.368,2.328,2.465,3.089C98.042,45.704,97.204,46.431,96.534,47.296z M109.459,151.882
		c-0.467-1.455-1.406-2.697-2.636-3.55c1.038-0.575,1.93-1.376,2.624-2.332c0.766,1,1.767,1.806,2.921,2.34
		C111.015,149.124,109.97,150.378,109.459,151.882z M109.447,47.503c-0.694-0.956-1.586-1.757-2.624-2.332
		c1.23-0.853,2.168-2.095,2.636-3.55c0.511,1.504,1.556,2.758,2.91,3.541C111.214,45.696,110.213,46.503,109.447,47.503z
		 M135.289,139.297c-0.44-1.555-1.386-2.892-2.652-3.831c1.061-0.66,1.956-1.555,2.616-2.615c0.938,1.265,2.275,2.212,3.83,2.652
		C137.304,136.113,135.899,137.518,135.289,139.297z M135.253,60.652c-0.66-1.06-1.555-1.955-2.616-2.615
		c1.266-0.939,2.212-2.275,2.652-3.831c0.609,1.779,2.015,3.184,3.794,3.793C137.528,58.441,136.191,59.387,135.253,60.652z
		 M148.128,112.583c-0.534-1.156-1.34-2.156-2.34-2.922c0.955-0.693,1.756-1.586,2.331-2.624c0.853,1.23,2.094,2.168,3.549,2.635
		C150.166,110.184,148.911,111.228,148.128,112.583z M145.998,96.752c0.862-0.67,1.589-1.505,2.121-2.466
		c0.761,1.097,1.832,1.961,3.087,2.466c-1.255,0.505-2.325,1.369-3.087,2.466C147.587,98.257,146.86,97.421,145.998,96.752z
		 M148.119,86.467c-0.575-1.038-1.376-1.931-2.331-2.624c0.999-0.766,1.805-1.767,2.34-2.922c0.784,1.355,2.038,2.399,3.541,2.911
		C150.213,84.299,148.972,85.237,148.119,86.467z"/>
</g>
<g>
	<path class="st1" d="M234.428,69.365v7.44c1.553-4.061,2.628-5.734,4.897-7.405c2.389-1.672,5.614-2.628,8.958-2.628
		c0.262,0,0.651,0,1.169,0.047c0.351,0.032,0.623,0.329,0.623,0.681l0,14.167c0,0.403-0.348,0.717-0.749,0.679
		c-0.931-0.09-1.816-0.165-2.476-0.165c-4.181,0-8.003,1.912-10.153,5.017c-1.791,2.508-2.269,4.897-2.269,10.152v25.954
		c0,0.377-0.305,0.682-0.682,0.682h-13.805c-0.377,0-0.682-0.305-0.682-0.682V69.365c0-0.377,0.305-0.682,0.682-0.682h13.805
		C234.123,68.683,234.428,68.988,234.428,69.365z"/>
	<path class="st1" d="M270.85,99.977c1.314,7.644,6.928,12.422,14.453,12.422c5.417,0,10.056-2.559,12.521-6.709
		c0.158-0.266,0.468-0.401,0.767-0.319l12.644,3.459c0.422,0.115,0.634,0.598,0.425,0.983
		c-5.557,10.278-15.049,16.084-26.476,16.084c-17.558,0-30.1-12.422-30.1-29.622c0-17.319,12.064-29.502,29.144-29.502
		c17.678,0,29.98,12.422,29.98,30.22l-0.093,2.331c-0.015,0.366-0.315,0.655-0.682,0.655H270.85z M298.562,91.257
		c-1.314-7.286-6.569-11.705-14.095-11.705c-7.286,0-12.183,4.18-13.616,11.705H298.562z"/>
	<path class="st1" d="M324.036,123.302V44.998c0-0.377,0.305-0.682,0.682-0.682h13.805c0.377,0,0.682,0.305,0.682,0.682v78.304
		c0,0.377-0.305,0.682-0.682,0.682h-13.805C324.341,123.985,324.036,123.679,324.036,123.302z"/>
	<path class="st1" d="M394.577,68.683h13.805c0.377,0,0.682,0.305,0.682,0.682v53.938c0,0.377-0.305,0.682-0.682,0.682h-13.805
		c-0.377,0-0.682-0.305-0.682-0.682v-6.962c-5.136,6.569-11.108,9.555-19.23,9.555c-15.528,0-26.636-12.064-26.636-28.905
		c0-17.439,11.706-30.22,27.831-30.22c7.525,0,12.661,2.628,18.036,8.958l0,0v-6.365C393.895,68.988,394.2,68.683,394.577,68.683z
		 M362.272,96.752c0,9.675,6.331,16.961,14.572,16.961c8.48,0,15.289-7.883,15.289-17.439c0-9.794-6.211-16.722-15.169-16.722
		C368.365,79.552,362.272,86.599,362.272,96.752z"/>
	<path class="st1" d="M456.823,68.683h14.665c0.479,0,0.809,0.481,0.636,0.928l-30.647,79.14c-0.102,0.263-0.354,0.436-0.636,0.436
		h-14.777c-0.48,0-0.81-0.484-0.635-0.931l10.026-25.586l-19.023-53.076c-0.159-0.444,0.17-0.912,0.642-0.912h14.668
		c0.292,0,0.551,0.185,0.645,0.461l11.07,32.385l12.73-32.414C456.291,68.854,456.543,68.683,456.823,68.683z"/>
</g>
<g>
</g>
<g>
</g>
<g>
</g>
<g>
</g>
<g>
</g>
<g>
</g>
<g>
</g>
<g>
</g>
<g>
</g>
<g>
</g>
<g>
</g>
<g>
</g>
<g>
</g>
<g>
</g>
<g>
</g>
</svg>
